<?xml version="1.0" standalone="no"?>
<!DOCTYPE svg PUBLIC "-//W3C//DTD SVG 20010904//EN"
 "http://www.w3.org/TR/2001/REC-SVG-20010904/DTD/svg10.dtd">
<svg xmlns="http://www.w3.org/2000/svg" width="1254" height="1254" viewBox="0 0 1254 1254">
<defs>
  <linearGradient id="strokeGradient" x1="1300" y1="4200" x2="11200" y2="8500" gradientUnits="userSpaceOnUse">
    <stop offset="0%" stop-color="#108fea"/>
    <stop offset="52%" stop-color="#4167f5"/>
    <stop offset="100%" stop-color="#8f30ee"/>
  </linearGradient>
</defs>
<rect width="1254" height="1254" fill="#fdfdfd"/>
<metadata>
Created by potrace 1.16, written by Peter Selinger 2001-2019
</metadata>
<g transform="translate(0.000000,1254.000000) scale(0.100000,-0.100000)"
fill="url(#strokeGradient)" stroke="none">
<path d="M6065 10946 c-203 -56 -370 -172 -525 -364 -162 -201 -278 -467 -354
-808 -44 -199 -72 -529 -63 -738 l6 -129 -137 136 c-395 392 -774 623 -1152
703 -126 27 -348 25 -455 -5 -471 -128 -661 -597 -474 -1166 109 -330 327
-659 687 -1037 l74 -77 -234 1 c-457 2 -815 -62 -1136 -201 -353 -153 -612
-423 -697 -726 -24 -88 -31 -311 -12 -401 35 -166 120 -322 249 -458 234 -249
581 -403 1068 -477 124 -19 189 -22 451 -23 l306 -1 -105 -110 c-377 -396
-606 -784 -694 -1177 -33 -147 -33 -366 0 -488 56 -207 185 -368 362 -453 127
-60 214 -79 370 -79 151 0 259 18 415 73 319 109 652 337 991 675 l111 112 6
-272 c7 -328 23 -452 92 -726 117 -462 354 -799 669 -949 153 -74 205 -86 376
-85 165 0 225 12 357 74 183 85 334 222 463 420 134 207 251 548 295 865 22
157 37 449 30 571 l-7 111 139 -137 c423 -416 819 -651 1204 -716 121 -20 320
-15 414 11 242 66 428 252 494 496 132 479 -128 1105 -694 1679 l-104 105 297
1 c377 1 565 24 847 105 280 80 487 198 665 378 123 125 187 224 236 369 178
521 -134 1039 -771 1277 -298 111 -763 177 -1130 160 l-149 -7 119 124 c552
568 811 1191 689 1661 -63 243 -252 428 -510 499 -106 29 -328 31 -454 4 -375
-79 -736 -296 -1127 -680 l-153 -149 0 194 c-1 600 -108 1041 -338 1385 -158
235 -375 399 -602 454 -120 28 -295 27 -405 -4z m308 -240 c245 -47 453 -233
592 -529 83 -178 148 -426 176 -677 17 -151 17 -555 -1 -749 -13 -152 -14
-154 -49 -200 -371 -481 -627 -919 -790 -1349 l-39 -104 -19 59 c-62 180 -247
564 -373 773 -98 162 -232 360 -352 518 l-109 143 -15 147 c-20 188 -14 654
10 810 39 254 95 449 181 630 70 146 138 243 238 339 114 110 228 170 363 192
74 13 105 12 187 -3z m-2623 -1206 c168 -26 416 -130 601 -252 252 -167 612
-505 797 -749 6 -8 23 -82 37 -164 72 -418 180 -808 316 -1146 71 -178 79
-199 73 -199 -3 0 -53 21 -112 46 -411 176 -796 284 -1320 370 -24 4 -71 40
-180 138 -339 306 -573 598 -722 901 -109 222 -144 354 -144 545 0 174 42 290
138 385 116 112 303 158 516 125z m5312 -1 c183 -39 311 -162 353 -340 21 -89
19 -254 -4 -364 -55 -263 -229 -583 -475 -870 -90 -105 -298 -315 -416 -420
l-106 -93 -79 -12 c-413 -61 -848 -184 -1239 -352 -76 -32 -140 -58 -141 -56
-2 2 17 53 41 113 159 391 267 768 341 1180 l35 200 71 85 c39 47 159 173 267
281 370 370 703 577 1036 643 86 17 246 20 316 5z m-3406 -1702 c199 -331 369
-722 445 -1020 17 -66 29 -121 26 -123 -2 -2 -39 27 -83 64 -78 68 -80 72
-166 243 -149 298 -280 662 -357 994 -7 28 -15 59 -18 70 -8 30 57 -68 153
-228z m1340 107 c-97 -369 -203 -654 -356 -959 -84 -167 -86 -170 -161 -232
l-76 -62 8 47 c39 248 222 687 436 1052 81 137 176 289 180 286 1 -1 -13 -60
-31 -132z m-3161 -720 l160 -17 152 -120 c399 -316 823 -568 1211 -718 26 -10
24 -12 -48 -41 -357 -141 -848 -439 -1194 -722 -54 -45 -106 -86 -115 -93 -52
-38 -708 -62 -951 -34 -378 42 -669 137 -897 292 -69 47 -192 175 -231 241
-59 99 -85 190 -90 309 -5 124 10 198 63 304 61 126 170 244 310 336 199 132
537 236 870 269 61 5 128 12 150 14 82 8 455 -4 610 -20z m5655 6 c571 -68
979 -281 1140 -598 44 -88 64 -173 64 -282 0 -286 -185 -530 -522 -692 -172
-82 -441 -151 -702 -179 -167 -19 -520 -16 -745 5 l-190 18 -120 98 c-376 304
-831 583 -1168 715 l-109 43 56 21 c357 133 909 471 1265 774 l65 55 114 12
c283 31 641 35 852 10z m-4784 -165 c352 -96 577 -181 880 -331 l211 -104 47
-70 c45 -68 46 -70 22 -70 -110 0 -461 122 -710 247 -212 107 -629 363 -589
363 5 0 68 -16 139 -35z m3209 -1 c-206 -147 -601 -365 -815 -449 -142 -56
-337 -115 -405 -122 l-60 -6 26 34 c14 19 36 49 49 67 60 82 484 281 865 406
124 40 352 105 375 105 8 1 -8 -15 -35 -35z m-2073 -907 c-43 -58 -59 -70
-177 -134 -257 -140 -685 -305 -997 -383 -45 -12 -92 -24 -103 -27 -55 -15
257 184 470 300 172 94 330 165 500 224 166 57 259 82 312 82 l42 1 -47 -63z
m1107 -6 c206 -69 374 -143 544 -237 175 -97 419 -250 471 -296 16 -13 -209
50 -389 109 -259 85 -431 155 -642 259 -182 91 -194 98 -235 152 -70 91 -70
86 7 79 43 -4 134 -29 244 -66z m-854 -272 c-60 -242 -228 -622 -417 -944
-110 -186 -183 -298 -175 -270 3 11 15 58 26 105 71 306 221 704 375 993 69
130 77 142 142 191 40 31 70 48 72 41 2 -7 -9 -59 -23 -116z m532 -117 c115
-218 226 -492 308 -763 33 -110 85 -314 85 -333 0 -14 -118 173 -200 315 -75
132 -210 401 -255 509 -66 160 -132 371 -150 478 l-7 44 73 -57 c71 -54 77
-62 146 -193z m-1067 -119 c-98 -238 -128 -318 -171 -448 -72 -217 -134 -465
-185 -743 l-44 -244 -60 -74 c-369 -450 -814 -797 -1181 -918 -88 -29 -240
-56 -319 -56 -139 0 -285 49 -367 124 -46 41 -93 125 -119 211 -29 94 -25 280
9 416 62 252 212 533 425 799 88 109 347 371 473 477 l86 73 149 25 c388 66
845 201 1224 364 52 22 96 41 97 41 2 0 -6 -21 -17 -47z m1525 -8 c86 -38 321
-126 450 -168 258 -83 653 -177 817 -194 59 -6 64 -9 167 -98 584 -508 912
-1044 911 -1488 -1 -274 -123 -454 -346 -508 -27 -7 -101 -12 -164 -12 -175 0
-298 33 -505 133 -248 120 -481 297 -746 567 -113 114 -267 286 -294 328 -7
11 -23 81 -35 155 -65 402 -185 832 -331 1189 -32 79 -59 145 -59 147 0 5 69
-21 135 -51z m-617 -532 c146 -291 359 -626 556 -879 l95 -122 13 -108 c17
-148 17 -709 0 -829 -104 -721 -403 -1146 -832 -1182 -142 -12 -327 51 -455
154 -95 77 -188 201 -260 348 -99 200 -154 391 -192 665 -22 159 -24 589 -4
802 13 143 15 149 46 185 97 115 309 415 410 583 153 252 309 561 385 763 l33
88 67 -163 c36 -90 99 -227 138 -305z"/>
</g>
</svg>
